<?xml version="1.0" encoding="UTF-8" standalone="no"?>
<!-- Created with Inkscape (http://www.inkscape.org/) -->

<svg
   xmlns:dc="http://purl.org/dc/elements/1.1/"
   xmlns:cc="http://creativecommons.org/ns#"
   xmlns:rdf="http://www.w3.org/1999/02/22-rdf-syntax-ns#"
   xmlns:svg="http://www.w3.org/2000/svg"
   xmlns="http://www.w3.org/2000/svg"
   xmlns:sodipodi="http://sodipodi.sourceforge.net/DTD/sodipodi-0.dtd"
   xmlns:inkscape="http://www.inkscape.org/namespaces/inkscape"
   width="515"
   height="98"
   viewBox="0 0 136.26061 25.929184"
   version="1.1"
   id="svg8"
   inkscape:version="0.92.4 (5da689c313, 2019-01-14)"
   sodipodi:docname="name.svg">
  <defs
     id="defs2" />
  <sodipodi:namedview
     id="base"
     pagecolor="#ffffff"
     bordercolor="#666666"
     borderopacity="1.0"
     inkscape:pageopacity="0.0"
     inkscape:pageshadow="2"
     inkscape:zoom="0.98994949"
     inkscape:cx="185.84514"
     inkscape:cy="384.18137"
     inkscape:document-units="mm"
     inkscape:current-layer="g4550"
     showgrid="false"
     inkscape:window-width="1920"
     inkscape:window-height="1001"
     inkscape:window-x="-9"
     inkscape:window-y="-9"
     inkscape:window-maximized="1"
     units="px" />
  <metadata
     id="metadata5">
    <rdf:RDF>
      <cc:Work
         rdf:about="">
        <dc:format>image/svg+xml</dc:format>
        <dc:type
           rdf:resource="http://purl.org/dc/dcmitype/StillImage" />
        <dc:title></dc:title>
      </cc:Work>
    </rdf:RDF>
  </metadata>
  <g
     inkscape:label="Layer 1"
     inkscape:groupmode="layer"
     id="layer1"
     transform="translate(0,-271.07031)">
    <g
       style="fill:none"
       id="g4550"
       transform="matrix(0.26458333,0,0,0.26458333,5.3875223,119.88565)">
      <g
         id="g4560"
         transform="translate(-1.4220173,-0.345557)">
        <path
           style="fill:#060c0e"
           inkscape:connector-curvature="0"
           d="m 3.0757284,583.99223 v 84.48 H -18.940272 v -84.48 z"
           id="p1" />
        <path
           style="fill:#000000"
           inkscape:connector-curvature="0"
           d="m 29.915728,575.15223 c 4.6933,0 8.1493,1.5787 10.368,4.736 2.304,3.1573 3.456,6.8267 3.456,11.008 0,3.84 -0.8533,7.552 -2.56,11.136 -1.6213,3.4987 -3.7973,6.6133 -6.528,9.344 -2.6453,2.6453 -5.5467,4.6507 -8.704,6.016 l -8.832,-6.528 c 3.4987,-1.4507 6.6133,-3.3707 9.344,-5.76 2.816,-2.4747 4.7787,-5.0773 5.888,-7.808 l -0.64,-0.384 c -0.512,0.3413 -1.1093,0.5973 -1.792,0.768 -0.5973,0.1707 -1.4507,0.256 -2.56,0.256 -2.304,0 -4.608,-0.8533 -6.912,-2.56 -2.2187,-1.7067 -3.328,-4.352 -3.328,-7.936 0,-4.0107 1.28,-7.04 3.84,-9.088 2.6453,-2.1333 5.632,-3.2 8.96,-3.2 z"
           id="p2" />
        <path
           style="fill:#000000"
           inkscape:connector-curvature="0"
           d="m 56.523728,668.47223 v -64 h 19.456 l 0.64,12.416 c 2.048,-4.5227 4.907,-7.936 8.576,-10.24 3.755,-2.304 8.064,-3.456 12.928,-3.456 4.693002,0 8.789002,1.0667 12.288002,3.2 3.584,2.1333 6.229,5.2907 7.936,9.472 1.963,-4.1813 4.864,-7.3387 8.704,-9.472 3.925,-2.1333 8.192,-3.2 12.8,-3.2 6.315,0 11.52,1.92 15.616,5.76 4.181,3.7547 6.272,9.3867 6.272,16.896 v 42.624 h -21.76 v -37.632 c 0,-4.096 -0.811,-6.9547 -2.432,-8.576 -1.621,-1.6213 -3.712,-2.432 -6.272,-2.432 -3.243,0 -5.931,1.2373 -8.064,3.712 -2.133,2.3893 -3.2,5.9733 -3.2,10.752 v 34.176 H 98.251728 v -37.632 c 0,-4.096 -0.811,-6.9547 -2.432,-8.576 -1.621,-1.6213 -3.712,-2.432 -6.272,-2.432 -2.987,0 -5.632,1.152 -7.936,3.456 -2.219,2.304 -3.328,6.1013 -3.328,11.392 v 33.792 z"
           id="p3" />
        <path
           style="fill:#000000"
           inkscape:connector-curvature="0"
           d="m 245.08373,582.71223 c 7.851,0 14.763,1.2373 20.736,3.712 6.059,2.3893 11.307,5.9307 15.744,10.624 l -10.624,14.208 c -3.669,-3.84 -7.637,-6.6987 -11.904,-8.576 -4.181,-1.9627 -8.96,-2.944 -14.336,-2.944 -4.693,0 -8.064,0.768 -10.112,2.304 -2.048,1.536 -3.072,3.4133 -3.072,5.632 0,1.792 0.811,3.328 2.432,4.608 1.707,1.1947 4.437,2.2187 8.192,3.072 l 14.208,3.2 c 8.448,1.9627 14.635,4.8213 18.56,8.576 3.925,3.7547 5.888,8.7467 5.888,14.976 0,5.973 -1.536,11.051 -4.608,15.232 -3.072,4.096 -7.296,7.211 -12.672,9.344 -5.376,2.048 -11.52,3.072 -18.432,3.072 -8.533,0 -16.341,-1.365 -23.424,-4.096 -7.083,-2.816 -12.715,-6.485 -16.896,-11.008 l 10.624,-14.72 c 3.157,3.6693 7.424,6.741 12.8,9.216 5.376,2.389 10.923,3.584 16.64,3.584 8.875,0 13.312,-2.603 13.312,-7.808 0,-1.792 -0.683,-3.2853 -2.048,-4.48 -1.28,-1.28 -3.669,-2.3467 -7.168,-3.2 l -15.616,-3.456 c -4.779,-1.024 -9.045,-2.4747 -12.8,-4.352 -3.669,-1.8773 -6.571,-4.352 -8.704,-7.424 -2.133,-3.1573 -3.2,-7.0827 -3.2,-11.776 0,-5.2907 1.451,-9.984 4.352,-14.08 2.901,-4.1813 7.083,-7.4667 12.544,-9.856 5.461,-2.3893 11.989,-3.584 19.584,-3.584 z"
           id="p4" />
        <path
           style="fill:#000000"
           inkscape:connector-curvature="0"
           d="m 329.23573,627.89623 c 0,-2.9867 -0.853,-5.3333 -2.56,-7.04 -1.621,-1.792 -3.84,-2.688 -6.656,-2.688 -2.816,0 -5.248,0.7253 -7.296,2.176 -1.963,1.3653 -3.328,3.84 -4.096,7.424 l -18.432,-4.352 c 1.195,-6.144 4.352,-11.0507 9.472,-14.72 5.12,-3.6693 12.331,-5.504 21.632,-5.504 9.387,0 16.64,2.0907 21.76,6.272 5.205,4.096 7.808,10.112 7.808,18.048 v 23.424 c 0,3.328 1.493,4.992 4.48,4.992 1.536,0 2.773,-0.171 3.712,-0.512 l -1.28,12.416 c -2.56,1.195 -5.675,1.792 -9.344,1.792 -4.011,0 -7.467,-0.768 -10.368,-2.304 -2.901,-1.621 -4.864,-4.053 -5.888,-7.296 -1.792,3.328 -4.651,5.803 -8.576,7.424 -3.84,1.536 -7.936,2.304 -12.288,2.304 -6.571,0 -11.819,-1.493 -15.744,-4.48 -3.84,-3.072 -5.76,-7.467 -5.76,-13.184 0,-4.608 1.365,-8.4053 4.096,-11.392 2.816,-3.072 7.211,-5.2053 13.184,-6.4 l 22.144,-4.608 z m -17.92,22.144 c 0,1.877 0.683,3.285 2.048,4.224 1.365,0.939 2.987,1.408 4.864,1.408 2.901,0 5.461,-0.853 7.68,-2.56 2.219,-1.792 3.328,-4.565 3.328,-8.32 v -3.584 l -10.368,2.176 c -2.56,0.512 -4.48,1.28 -5.76,2.304 -1.195,0.939 -1.792,2.389 -1.792,4.352 z"
           id="p5" />
        <path
           style="fill:#000000"
           inkscape:connector-curvature="0"
           d="m 386.40373,597.04823 c -4.437,0 -7.68,-0.8107 -9.728,-2.432 -1.963,-1.7067 -2.944,-4.352 -2.944,-7.936 0,-3.6693 0.981,-6.3147 2.944,-7.936 2.048,-1.7067 5.291,-2.56 9.728,-2.56 4.352,0 7.552,0.8533 9.6,2.56 2.048,1.6213 3.072,4.2667 3.072,7.936 0,3.584 -1.024,6.2293 -3.072,7.936 -2.048,1.6213 -5.248,2.432 -9.6,2.432 z m 10.88,7.424 v 64 h -21.76 v -64 z"
           id="p6" />
        <path
           style="fill:#000000"
           inkscape:connector-curvature="0"
           d="m 464.81173,604.47223 v 15.488 h -18.176 v 48.512 h -21.76 v -48.512 h -10.24 v -15.488 h 10.24 v -5.888 c 0,-5.4613 1.152,-9.856 3.456,-13.184 2.389,-3.4133 5.504,-5.888 9.344,-7.424 3.925,-1.6213 8.149,-2.432 12.672,-2.432 3.499,0 6.571,0.384 9.216,1.152 2.645,0.6827 4.608,1.4933 5.888,2.432 l -2.176,13.568 c -0.939,-0.512 -2.005,-0.9387 -3.2,-1.28 -1.195,-0.4267 -2.688,-0.64 -4.48,-0.64 -3.072,0 -5.547,0.6827 -7.424,2.048 -1.877,1.3653 -2.816,3.7547 -2.816,7.168 v 4.48 z"
           id="p7" />
        <path
           style="fill:#000000"
           inkscape:connector-curvature="0"
           d="m 480.27573,646.45623 c 4.011,0 7.125,1.024 9.344,3.072 2.304,2.048 3.456,4.907 3.456,8.576 0,3.584 -1.152,6.4 -3.456,8.448 -2.219,2.048 -5.333,3.072 -9.344,3.072 -4.011,0 -7.168,-1.024 -9.472,-3.072 -2.219,-2.048 -3.328,-4.864 -3.328,-8.448 0,-3.669 1.109,-6.528 3.328,-8.576 2.304,-2.048 5.461,-3.072 9.472,-3.072 z"
           id="p8" />
      </g>
    </g>
  </g>
</svg>
